STARTFONT 2.1
COMMENT
COMMENT Converted from OpenType font "Arial_Bold.ttf" by "otf2bdf 3.0".
COMMENT
FONT -FreeType-Arial-Bold-R-Normal--14-100-100-100-P-69-ISO10646-1
SIZE 10 100 100
FONTBOUNDINGBOX 14 14 -1 -3
STARTPROPERTIES 19
FOUNDRY "FreeType"
FAMILY_NAME "Arial"
WEIGHT_NAME "Bold"
SLANT "R"
SETWIDTH_NAME "Normal"
ADD_STYLE_NAME ""
PIXEL_SIZE 14
POINT_SIZE 100
RESOLUTION_X 100
RESOLUTION_Y 100
SPACING "P"
AVERAGE_WIDTH 69
CHARSET_REGISTRY "ISO10646"
CHARSET_ENCODING "1"
FONT_ASCENT 12
FONT_DESCENT 2
COPYRIGHT "© 2006 The Monotype Corporation. All Rights Reserved."
_OTF_FONTFILE "Arial_Bold.ttf"
_OTF_PSNAME "Arial-BoldMT"
ENDPROPERTIES
CHARS 95
STARTCHAR 0020
ENCODING 32
SWIDTH 288 0
DWIDTH 4 0
BBX 0 0 0 0
BITMAP
ENDCHAR
STARTCHAR 0021
ENCODING 33
SWIDTH 360 0
DWIDTH 5 0
BBX 2 10 1 0
BITMAP
C0
C0
C0
C0
40
40
40
00
C0
C0
ENDCHAR
STARTCHAR 0022
ENCODING 34
SWIDTH 504 0
DWIDTH 7 0
BBX 5 4 1 6
BITMAP
D8
D8
D8
D8
ENDCHAR
STARTCHAR 0023
ENCODING 35
SWIDTH 576 0
DWIDTH 8 0
BBX 8 10 0 0
BITMAP
12
36
36
FF
24
64
FF
6C
48
48
ENDCHAR
STARTCHAR 0024
ENCODING 36
SWIDTH 576 0
DWIDTH 8 0
BBX 6 12 1 -1
BITMAP
20
78
F8
EC
E0
F0
3C
2C
EC
FC
78
20
ENDCHAR
STARTCHAR 0025
ENCODING 37
SWIDTH 864 0
DWIDTH 12 0
BBX 11 10 1 0
BITMAP
E100
B300
B200
B600
E400
0DC0
0B60
1B60
1360
31C0
ENDCHAR
STARTCHAR 0026
ENCODING 38
SWIDTH 720 0
DWIDTH 10 0
BBX 8 10 1 0
BITMAP
3C
64
64
7C
78
FA
CF
CF
CF
7F
ENDCHAR
STARTCHAR 0027
ENCODING 39
SWIDTH 216 0
DWIDTH 3 0
BBX 2 4 1 6
BITMAP
C0
C0
C0
80
ENDCHAR
STARTCHAR 0028
ENCODING 40
SWIDTH 360 0
DWIDTH 5 0
BBX 3 13 1 -3
BITMAP
20
60
40
C0
C0
C0
C0
C0
C0
C0
40
60
20
ENDCHAR
STARTCHAR 0029
ENCODING 41
SWIDTH 360 0
DWIDTH 5 0
BBX 3 13 1 -3
BITMAP
80
C0
C0
60
60
60
60
60
60
40
C0
C0
80
ENDCHAR
STARTCHAR 002A
ENCODING 42
SWIDTH 360 0
DWIDTH 5 0
BBX 5 4 0 6
BITMAP
20
E8
30
58
ENDCHAR
STARTCHAR 002B
ENCODING 43
SWIDTH 576 0
DWIDTH 8 0
BBX 7 8 1 1
BITMAP
30
30
30
FE
FE
30
30
30
ENDCHAR
STARTCHAR 002C
ENCODING 44
SWIDTH 288 0
DWIDTH 4 0
BBX 2 4 1 -2
BITMAP
C0
C0
40
80
ENDCHAR
STARTCHAR 002D
ENCODING 45
SWIDTH 360 0
DWIDTH 5 0
BBX 4 2 1 3
BITMAP
F0
F0
ENDCHAR
STARTCHAR 002E
ENCODING 46
SWIDTH 288 0
DWIDTH 4 0
BBX 2 2 1 0
BITMAP
C0
C0
ENDCHAR
STARTCHAR 002F
ENCODING 47
SWIDTH 288 0
DWIDTH 4 0
BBX 4 10 0 0
BITMAP
30
30
20
20
60
60
40
40
C0
C0
ENDCHAR
STARTCHAR 0030
ENCODING 48
SWIDTH 576 0
DWIDTH 8 0
BBX 6 10 1 0
BITMAP
78
F8
CC
CC
CC
CC
CC
CC
F8
78
ENDCHAR
STARTCHAR 0031
ENCODING 49
SWIDTH 576 0
DWIDTH 8 0
BBX 5 10 1 0
BITMAP
18
78
D8
98
18
18
18
18
18
18
ENDCHAR
STARTCHAR 0032
ENCODING 50
SWIDTH 576 0
DWIDTH 8 0
BBX 7 10 0 0
BITMAP
3C
7E
66
66
06
0C
18
30
7E
FE
ENDCHAR
STARTCHAR 0033
ENCODING 51
SWIDTH 576 0
DWIDTH 8 0
BBX 6 10 1 0
BITMAP
78
FC
CC
08
30
0C
8C
CC
FC
78
ENDCHAR
STARTCHAR 0034
ENCODING 52
SWIDTH 576 0
DWIDTH 8 0
BBX 7 10 0 0
BITMAP
0C
0C
1C
3C
6C
4C
FE
FE
0C
0C
ENDCHAR
STARTCHAR 0035
ENCODING 53
SWIDTH 576 0
DWIDTH 8 0
BBX 6 10 1 0
BITMAP
7C
7C
C0
F8
FC
CC
0C
CC
FC
78
ENDCHAR
STARTCHAR 0036
ENCODING 54
SWIDTH 576 0
DWIDTH 8 0
BBX 6 10 1 0
BITMAP
78
FC
CC
C0
F8
FC
CC
CC
FC
78
ENDCHAR
STARTCHAR 0037
ENCODING 55
SWIDTH 576 0
DWIDTH 8 0
BBX 6 10 1 0
BITMAP
FC
FC
08
10
30
30
20
60
60
60
ENDCHAR
STARTCHAR 0038
ENCODING 56
SWIDTH 576 0
DWIDTH 8 0
BBX 6 10 1 0
BITMAP
78
FC
CC
CC
78
F8
CC
CC
FC
78
ENDCHAR
STARTCHAR 0039
ENCODING 57
SWIDTH 576 0
DWIDTH 8 0
BBX 7 10 0 0
BITMAP
38
7C
C6
C6
7E
3E
06
66
7C
38
ENDCHAR
STARTCHAR 003A
ENCODING 58
SWIDTH 360 0
DWIDTH 5 0
BBX 2 8 1 0
BITMAP
C0
C0
00
00
00
00
C0
C0
ENDCHAR
STARTCHAR 003B
ENCODING 59
SWIDTH 360 0
DWIDTH 5 0
BBX 2 10 1 -2
BITMAP
C0
C0
00
00
00
00
C0
C0
40
80
ENDCHAR
STARTCHAR 003C
ENCODING 60
SWIDTH 576 0
DWIDTH 8 0
BBX 7 8 1 1
BITMAP
06
1E
78
E0
E0
78
1E
06
ENDCHAR
STARTCHAR 003D
ENCODING 61
SWIDTH 576 0
DWIDTH 8 0
BBX 7 5 1 3
BITMAP
FE
FE
00
FE
FE
ENDCHAR
STARTCHAR 003E
ENCODING 62
SWIDTH 576 0
DWIDTH 8 0
BBX 7 8 1 1
BITMAP
80
E0
78
1E
1E
78
E0
80
ENDCHAR
STARTCHAR 003F
ENCODING 63
SWIDTH 648 0
DWIDTH 9 0
BBX 7 10 1 0
BITMAP
78
FE
C6
06
1C
18
30
00
30
30
ENDCHAR
STARTCHAR 0040
ENCODING 64
SWIDTH 1008 0
DWIDTH 14 0
BBX 13 13 0 -3
BITMAP
07C0
1830
2758
6FC8
5CC8
58C8
D8C8
D9D8
5F90
4EE0
2008
3830
0FE0
ENDCHAR
STARTCHAR 0041
ENCODING 65
SWIDTH 720 0
DWIDTH 10 0
BBX 10 10 0 0
BITMAP
0C00
1E00
1E00
1600
3300
3300
7F80
7F80
6180
C0C0
ENDCHAR
STARTCHAR 0042
ENCODING 66
SWIDTH 720 0
DWIDTH 10 0
BBX 8 10 1 0
BITMAP
FE
FF
C3
C3
FE
FF
C3
C3
FF
FE
ENDCHAR
STARTCHAR 0043
ENCODING 67
SWIDTH 720 0
DWIDTH 10 0
BBX 8 10 1 0
BITMAP
3E
7F
E3
C2
C0
C0
C2
E3
7F
3C
ENDCHAR
STARTCHAR 0044
ENCODING 68
SWIDTH 720 0
DWIDTH 10 0
BBX 8 10 1 0
BITMAP
FC
FE
C3
C3
C3
C3
C3
C3
FE
FC
ENDCHAR
STARTCHAR 0045
ENCODING 69
SWIDTH 648 0
DWIDTH 9 0
BBX 8 10 1 0
BITMAP
FE
FE
C0
C0
FE
FE
C0
C0
FF
FF
ENDCHAR
STARTCHAR 0046
ENCODING 70
SWIDTH 648 0
DWIDTH 9 0
BBX 7 10 1 0
BITMAP
FE
FE
C0
C0
FC
FC
C0
C0
C0
C0
ENDCHAR
STARTCHAR 0047
ENCODING 71
SWIDTH 792 0
DWIDTH 11 0
BBX 9 10 1 0
BITMAP
3E00
7F00
E380
C100
C000
C780
C780
E180
7F80
3E00
ENDCHAR
STARTCHAR 0048
ENCODING 72
SWIDTH 720 0
DWIDTH 10 0
BBX 8 10 1 0
BITMAP
C3
C3
C3
C3
FF
FF
C3
C3
C3
C3
ENDCHAR
STARTCHAR 0049
ENCODING 73
SWIDTH 288 0
DWIDTH 4 0
BBX 2 10 1 0
BITMAP
C0
C0
C0
C0
C0
C0
C0
C0
C0
C0
ENDCHAR
STARTCHAR 004A
ENCODING 74
SWIDTH 576 0
DWIDTH 8 0
BBX 7 10 0 0
BITMAP
06
06
06
06
06
06
C6
CE
7C
38
ENDCHAR
STARTCHAR 004B
ENCODING 75
SWIDTH 720 0
DWIDTH 10 0
BBX 9 10 1 0
BITMAP
C300
C600
CC00
D800
FC00
EC00
CE00
C700
C300
C380
ENDCHAR
STARTCHAR 004C
ENCODING 76
SWIDTH 648 0
DWIDTH 9 0
BBX 7 10 1 0
BITMAP
C0
C0
C0
C0
C0
C0
C0
C0
FE
FE
ENDCHAR
STARTCHAR 004D
ENCODING 77
SWIDTH 864 0
DWIDTH 12 0
BBX 10 10 1 0
BITMAP
E1C0
E3C0
F3C0
F2C0
F6C0
D6C0
DEC0
DCC0
DCC0
CCC0
ENDCHAR
STARTCHAR 004E
ENCODING 78
SWIDTH 720 0
DWIDTH 10 0
BBX 8 10 1 0
BITMAP
C3
E3
E3
F3
DB
DB
CF
CF
C7
C3
ENDCHAR
STARTCHAR 004F
ENCODING 79
SWIDTH 792 0
DWIDTH 11 0
BBX 9 10 1 0
BITMAP
3E00
7F00
E380
C180
C180
C180
C180
E380
7F00
3E00
ENDCHAR
STARTCHAR 0050
ENCODING 80
SWIDTH 648 0
DWIDTH 9 0
BBX 8 10 1 0
BITMAP
FC
FE
C7
C7
FE
FC
C0
C0
C0
C0
ENDCHAR
STARTCHAR 0051
ENCODING 81
SWIDTH 792 0
DWIDTH 11 0
BBX 9 11 1 -1
BITMAP
3E00
7F00
E380
C180
C180
C180
CD80
E780
7F80
3F80
0080
ENDCHAR
STARTCHAR 0052
ENCODING 82
SWIDTH 720 0
DWIDTH 10 0
BBX 9 10 1 0
BITMAP
FE00
FF00
C300
C300
FF00
FC00
CE00
C600
C300
C380
ENDCHAR
STARTCHAR 0053
ENCODING 83
SWIDTH 648 0
DWIDTH 9 0
BBX 8 10 1 0
BITMAP
7C
FE
C6
E0
FC
3E
07
C7
FE
7C
ENDCHAR
STARTCHAR 0054
ENCODING 84
SWIDTH 648 0
DWIDTH 9 0
BBX 8 10 0 0
BITMAP
FF
FF
18
18
18
18
18
18
18
18
ENDCHAR
STARTCHAR 0055
ENCODING 85
SWIDTH 720 0
DWIDTH 10 0
BBX 8 10 1 0
BITMAP
C3
C3
C3
C3
C3
C3
C3
E3
7F
3C
ENDCHAR
STARTCHAR 0056
ENCODING 86
SWIDTH 648 0
DWIDTH 9 0
BBX 9 10 0 0
BITMAP
C180
6180
6300
6300
3300
3600
3E00
1E00
1C00
1C00
ENDCHAR
STARTCHAR 0057
ENCODING 87
SWIDTH 936 0
DWIDTH 13 0
BBX 13 10 0 0
BITMAP
C718
C718
6798
65B0
6DB0
6DB0
3CF0
38E0
38E0
38E0
ENDCHAR
STARTCHAR 0058
ENCODING 88
SWIDTH 648 0
DWIDTH 9 0
BBX 9 10 0 0
BITMAP
6380
7300
3600
1E00
1C00
1C00
3E00
3700
6300
E180
ENDCHAR
STARTCHAR 0059
ENCODING 89
SWIDTH 648 0
DWIDTH 9 0
BBX 9 10 0 0
BITMAP
E180
6300
3300
3600
1E00
1C00
0C00
0C00
0C00
0C00
ENDCHAR
STARTCHAR 005A
ENCODING 90
SWIDTH 648 0
DWIDTH 9 0
BBX 8 10 0 0
BITMAP
7F
7F
06
0C
18
38
70
60
FF
FF
ENDCHAR
STARTCHAR 005B
ENCODING 91
SWIDTH 360 0
DWIDTH 5 0
BBX 3 13 1 -3
BITMAP
E0
E0
C0
C0
C0
C0
C0
C0
C0
C0
C0
E0
E0
ENDCHAR
STARTCHAR 005C
ENCODING 92
SWIDTH 288 0
DWIDTH 4 0
BBX 4 10 0 0
BITMAP
C0
C0
40
40
60
60
20
20
30
30
ENDCHAR
STARTCHAR 005D
ENCODING 93
SWIDTH 360 0
DWIDTH 5 0
BBX 4 13 0 -3
BITMAP
F0
F0
30
30
30
30
30
30
30
30
30
F0
F0
ENDCHAR
STARTCHAR 005E
ENCODING 94
SWIDTH 576 0
DWIDTH 8 0
BBX 6 5 1 5
BITMAP
30
38
78
4C
CC
ENDCHAR
STARTCHAR 005F
ENCODING 95
SWIDTH 576 0
DWIDTH 8 0
BBX 8 1 0 -3
BITMAP
FF
ENDCHAR
STARTCHAR 0060
ENCODING 96
SWIDTH 360 0
DWIDTH 5 0
BBX 2 2 1 8
BITMAP
C0
40
ENDCHAR
STARTCHAR 0061
ENCODING 97
SWIDTH 576 0
DWIDTH 8 0
BBX 6 8 1 0
BITMAP
78
FC
0C
3C
CC
CC
FC
EC
ENDCHAR
STARTCHAR 0062
ENCODING 98
SWIDTH 648 0
DWIDTH 9 0
BBX 7 10 1 0
BITMAP
C0
C0
FC
FC
C6
C6
C6
C6
FC
FC
ENDCHAR
STARTCHAR 0063
ENCODING 99
SWIDTH 576 0
DWIDTH 8 0
BBX 6 8 1 0
BITMAP
78
FC
CC
C0
C0
CC
FC
78
ENDCHAR
STARTCHAR 0064
ENCODING 100
SWIDTH 648 0
DWIDTH 9 0
BBX 7 10 1 0
BITMAP
06
06
76
FE
CE
C6
C6
CE
FE
76
ENDCHAR
STARTCHAR 0065
ENCODING 101
SWIDTH 576 0
DWIDTH 8 0
BBX 7 8 0 0
BITMAP
3C
7E
66
FE
FE
60
7E
3C
ENDCHAR
STARTCHAR 0066
ENCODING 102
SWIDTH 360 0
DWIDTH 5 0
BBX 5 10 0 0
BITMAP
38
60
F8
F8
60
60
60
60
60
60
ENDCHAR
STARTCHAR 0067
ENCODING 103
SWIDTH 648 0
DWIDTH 9 0
BBX 7 11 1 -3
BITMAP
76
FE
CE
C6
C6
CE
FE
76
C6
FC
78
ENDCHAR
STARTCHAR 0068
ENCODING 104
SWIDTH 648 0
DWIDTH 9 0
BBX 7 10 1 0
BITMAP
C0
C0
DC
FC
CE
C6
C6
C6
C6
C6
ENDCHAR
STARTCHAR 0069
ENCODING 105
SWIDTH 288 0
DWIDTH 4 0
BBX 2 10 1 0
BITMAP
C0
00
C0
C0
C0
C0
C0
C0
C0
C0
ENDCHAR
STARTCHAR 006A
ENCODING 106
SWIDTH 288 0
DWIDTH 4 0
BBX 4 13 -1 -3
BITMAP
30
00
30
30
30
30
30
30
30
30
30
70
E0
ENDCHAR
STARTCHAR 006B
ENCODING 107
SWIDTH 576 0
DWIDTH 8 0
BBX 6 10 1 0
BITMAP
C0
C0
CC
D8
F0
F0
F8
D8
CC
CC
ENDCHAR
STARTCHAR 006C
ENCODING 108
SWIDTH 288 0
DWIDTH 4 0
BBX 2 10 1 0
BITMAP
C0
C0
C0
C0
C0
C0
C0
C0
C0
C0
ENDCHAR
STARTCHAR 006D
ENCODING 109
SWIDTH 864 0
DWIDTH 12 0
BBX 11 8 1 0
BITMAP
F9C0
FFC0
CEE0
CC60
CC60
CC60
CC60
CC60
ENDCHAR
STARTCHAR 006E
ENCODING 110
SWIDTH 648 0
DWIDTH 9 0
BBX 7 8 1 0
BITMAP
FC
FC
CE
C6
C6
C6
C6
C6
ENDCHAR
STARTCHAR 006F
ENCODING 111
SWIDTH 648 0
DWIDTH 9 0
BBX 7 8 1 0
BITMAP
78
FC
C6
C6
C6
C6
FC
78
ENDCHAR
STARTCHAR 0070
ENCODING 112
SWIDTH 648 0
DWIDTH 9 0
BBX 7 11 1 -3
BITMAP
FC
FC
C6
C6
C6
C6
FC
FC
C0
C0
C0
ENDCHAR
STARTCHAR 0071
ENCODING 113
SWIDTH 648 0
DWIDTH 9 0
BBX 7 11 1 -3
BITMAP
76
FE
CE
C6
C6
CE
FE
76
06
06
06
ENDCHAR
STARTCHAR 0072
ENCODING 114
SWIDTH 360 0
DWIDTH 5 0
BBX 5 8 1 0
BITMAP
F8
F0
C0
C0
C0
C0
C0
C0
ENDCHAR
STARTCHAR 0073
ENCODING 115
SWIDTH 576 0
DWIDTH 8 0
BBX 6 8 1 0
BITMAP
78
FC
80
F0
3C
0C
FC
78
ENDCHAR
STARTCHAR 0074
ENCODING 116
SWIDTH 360 0
DWIDTH 5 0
BBX 4 10 0 0
BITMAP
20
60
F0
F0
60
60
60
60
70
30
ENDCHAR
STARTCHAR 0075
ENCODING 117
SWIDTH 648 0
DWIDTH 9 0
BBX 7 8 1 0
BITMAP
C6
C6
C6
C6
C6
CE
FE
76
ENDCHAR
STARTCHAR 0076
ENCODING 118
SWIDTH 576 0
DWIDTH 8 0
BBX 7 8 0 0
BITMAP
C6
66
66
6C
3C
3C
38
18
ENDCHAR
STARTCHAR 0077
ENCODING 119
SWIDTH 792 0
DWIDTH 11 0
BBX 11 8 0 0
BITMAP
CE60
CE40
6EC0
6AC0
7AC0
3B80
3B80
3180
ENDCHAR
STARTCHAR 0078
ENCODING 120
SWIDTH 576 0
DWIDTH 8 0
BBX 7 8 0 0
BITMAP
66
6C
3C
38
38
3C
6E
E6
ENDCHAR
STARTCHAR 0079
ENCODING 121
SWIDTH 576 0
DWIDTH 8 0
BBX 7 11 0 -3
BITMAP
C6
66
66
64
3C
3C
38
18
18
30
70
ENDCHAR
STARTCHAR 007A
ENCODING 122
SWIDTH 504 0
DWIDTH 7 0
BBX 7 8 0 0
BITMAP
FE
FE
1C
18
30
60
FE
FE
ENDCHAR
STARTCHAR 007B
ENCODING 123
SWIDTH 360 0
DWIDTH 5 0
BBX 5 13 0 -3
BITMAP
18
38
30
30
30
20
C0
20
30
30
30
38
18
ENDCHAR
STARTCHAR 007C
ENCODING 124
SWIDTH 288 0
DWIDTH 4 0
BBX 2 13 1 -3
BITMAP
C0
C0
C0
C0
C0
C0
C0
C0
C0
C0
C0
C0
C0
ENDCHAR
STARTCHAR 007D
ENCODING 125
SWIDTH 360 0
DWIDTH 5 0
BBX 5 13 0 -3
BITMAP
E0
E0
20
20
30
30
18
30
30
20
20
E0
E0
ENDCHAR
STARTCHAR 007E
ENCODING 126
SWIDTH 576 0
DWIDTH 8 0
BBX 8 3 0 4
BITMAP
71
FF
8E
ENDCHAR
ENDFONT
