STARTFONT 2.1
COMMENT
COMMENT Converted from OpenType font "Arial.ttf" by "otf2bdf 3.0".
COMMENT
FONT -FreeType-Arial-Medium-R-Normal--33-240-100-100-P-147-ISO10646-1
SIZE 24 100 100
FONTBOUNDINGBOX 33 32 -1 -7
STARTPROPERTIES 19
FOUNDRY "FreeType"
FAMILY_NAME "Arial"
WEIGHT_NAME "Medium"
SLANT "R"
SETWIDTH_NAME "Normal"
ADD_STYLE_NAME ""
PIXEL_SIZE 33
POINT_SIZE 240
RESOLUTION_X 100
RESOLUTION_Y 100
SPACING "P"
AVERAGE_WIDTH 147
CHARSET_REGISTRY "ISO10646"
CHARSET_ENCODING "1"
FONT_ASCENT 29
FONT_DESCENT 6
COPYRIGHT "© 2006 The Monotype Corporation. All Rights Reserved."
_OTF_FONTFILE "Arial.ttf"
_OTF_PSNAME "ArialMT"
ENDPROPERTIES
CHARS 95
STARTCHAR 0020
ENCODING 32
SWIDTH 270 0
DWIDTH 9 0
BBX 0 0 0 0
BITMAP
ENDCHAR
STARTCHAR 0021
ENCODING 33
SWIDTH 270 0
DWIDTH 9 0
BBX 3 24 3 0
BITMAP
E0
E0
E0
E0
E0
E0
E0
E0
E0
E0
E0
E0
E0
E0
E0
E0
60
60
60
00
00
E0
E0
E0
ENDCHAR
STARTCHAR 0022
ENCODING 34
SWIDTH 360 0
DWIDTH 12 0
BBX 8 8 2 16
BITMAP
E7
E7
E7
E7
E7
E7
C7
C3
ENDCHAR
STARTCHAR 0023
ENCODING 35
SWIDTH 540 0
DWIDTH 18 0
BBX 18 24 0 0
BITMAP
018300
038300
038300
030700
030700
070600
FFFFC0
FFFFC0
FFFFC0
060E00
0E0C00
0E0C00
0C0C00
0C1C00
FFFFC0
FFFFC0
FFFFC0
183800
183800
183800
383000
383000
307000
307000
ENDCHAR
STARTCHAR 0024
ENCODING 36
SWIDTH 540 0
DWIDTH 18 0
BBX 16 28 1 -3
BITMAP
0180
07E0
1FF8
3FFC
79BC
718E
718E
7180
7180
7980
3F80
1FE0
0FF8
01FC
01BE
018E
0187
0187
E187
F18F
718E
799E
3FFC
1FF8
07E0
0180
0180
0180
ENDCHAR
STARTCHAR 0025
ENCODING 37
SWIDTH 870 0
DWIDTH 29 0
BBX 25 24 2 0
BITMAP
1E003000
7F006000
73806000
E1C0C000
E1C1C000
C1C18000
C1C38000
C1C30000
E1C70000
E1C60000
738E0000
7F0C3C00
1E1C7F00
0018E300
0030C380
0031C180
0061C180
00E1C180
00C1C180
01C1C180
0180C380
0380E300
03007F00
07003C00
ENDCHAR
STARTCHAR 0026
ENCODING 38
SWIDTH 660 0
DWIDTH 22 0
BBX 20 24 1 0
BITMAP
01F000
07F800
0FFC00
0E1C00
1E0E00
1C0E00
0E0E00
0E1C00
073800
07F000
03E000
0FE000
1EF000
3CF1C0
7879C0
703DC0
F01FC0
F00F80
700780
780F80
7C3FC0
3FFDF0
1FF8F0
07E020
ENDCHAR
STARTCHAR 0027
ENCODING 39
SWIDTH 180 0
DWIDTH 6 0
BBX 4 8 1 16
BITMAP
F0
F0
F0
F0
70
60
60
60
ENDCHAR
STARTCHAR 0028
ENCODING 40
SWIDTH 330 0
DWIDTH 11 0
BBX 7 31 2 -7
BITMAP
06
06
0C
1C
18
38
38
70
70
70
60
E0
E0
E0
E0
E0
E0
E0
E0
E0
60
70
70
70
38
38
18
1C
0C
06
06
ENDCHAR
STARTCHAR 0029
ENCODING 41
SWIDTH 330 0
DWIDTH 11 0
BBX 8 31 2 -7
BITMAP
C0
60
70
30
38
18
1C
0C
0E
0E
0E
0E
07
07
07
07
07
07
07
0E
0E
0E
0E
0C
1C
18
38
30
70
60
C0
ENDCHAR
STARTCHAR 002A
ENCODING 42
SWIDTH 390 0
DWIDTH 13 0
BBX 11 10 1 14
BITMAP
0C00
0C00
0C00
ECC0
FFE0
3F80
1E00
3B00
7380
3100
ENDCHAR
STARTCHAR 002B
ENCODING 43
SWIDTH 570 0
DWIDTH 19 0
BBX 15 15 2 4
BITMAP
0380
0380
0380
0380
0380
0380
FFFE
FFFE
FFFE
0380
0380
0380
0380
0380
0380
ENDCHAR
STARTCHAR 002C
ENCODING 44
SWIDTH 270 0
DWIDTH 9 0
BBX 3 8 3 -5
BITMAP
E0
E0
E0
20
60
60
C0
80
ENDCHAR
STARTCHAR 002D
ENCODING 45
SWIDTH 330 0
DWIDTH 11 0
BBX 9 3 1 7
BITMAP
FF80
FF80
FF80
ENDCHAR
STARTCHAR 002E
ENCODING 46
SWIDTH 270 0
DWIDTH 9 0
BBX 3 3 3 0
BITMAP
E0
E0
E0
ENDCHAR
STARTCHAR 002F
ENCODING 47
SWIDTH 270 0
DWIDTH 9 0
BBX 9 24 0 0
BITMAP
0180
0380
0300
0300
0300
0700
0600
0600
0E00
0C00
0C00
0C00
1C00
1800
1800
3800
3000
3000
3000
7000
6000
6000
E000
E000
ENDCHAR
STARTCHAR 0030
ENCODING 48
SWIDTH 540 0
DWIDTH 18 0
BBX 16 24 1 0
BITMAP
07E0
0FF8
1FF8
3C3C
381E
700E
700E
700E
7007
E007
E007
E007
E007
E007
E007
7007
700E
700E
700E
381E
3C3C
1FF8
0FF8
07E0
ENDCHAR
STARTCHAR 0031
ENCODING 49
SWIDTH 540 0
DWIDTH 18 0
BBX 8 24 4 0
BITMAP
03
07
07
1F
3F
7F
F7
C7
07
07
07
07
07
07
07
07
07
07
07
07
07
07
07
07
ENDCHAR
STARTCHAR 0032
ENCODING 50
SWIDTH 540 0
DWIDTH 18 0
BBX 16 24 1 0
BITMAP
07E0
1FF8
3FFC
7C3E
700E
700E
7007
0007
000E
000E
001E
003C
0078
00F0
01E0
03C0
0780
0E00
1C00
3800
7000
7FFF
FFFF
FFFF
ENDCHAR
STARTCHAR 0033
ENCODING 51
SWIDTH 540 0
DWIDTH 18 0
BBX 16 24 1 0
BITMAP
07E0
1FF8
3FFC
783C
701E
700E
000E
001C
003C
03F8
03F8
03FC
001E
000E
000F
0007
0007
E007
700F
701E
7C3E
3FFC
1FF8
07E0
ENDCHAR
STARTCHAR 0034
ENCODING 52
SWIDTH 540 0
DWIDTH 18 0
BBX 17 24 0 0
BITMAP
001C00
003C00
007C00
007C00
00FC00
01DC00
019C00
039C00
071C00
0E1C00
0E1C00
1C1C00
381C00
701C00
701C00
FFFF80
FFFF80
FFFF80
001C00
001C00
001C00
001C00
001C00
001C00
ENDCHAR
STARTCHAR 0035
ENCODING 53
SWIDTH 540 0
DWIDTH 18 0
BBX 16 24 1 0
BITMAP
1FFE
1FFE
1FFE
3800
3800
3800
3800
3800
33E0
77F8
7FFC
783E
000E
000F
0007
0007
0007
F007
700F
700E
7C3E
3FFC
1FF8
07E0
ENDCHAR
STARTCHAR 0036
ENCODING 54
SWIDTH 540 0
DWIDTH 18 0
BBX 16 24 1 0
BITMAP
03F0
0FF8
1FFC
3C1E
380E
700E
7000
6000
E3E0
E7F8
EFFC
FC3E
F80E
F00F
F007
F007
7007
7007
700E
780E
3C3E
1FFC
0FF8
07E0
ENDCHAR
STARTCHAR 0037
ENCODING 55
SWIDTH 540 0
DWIDTH 18 0
BBX 15 24 2 0
BITMAP
FFFE
FFFE
FFFE
001C
0038
0070
0070
00E0
01E0
01C0
03C0
0380
0780
0700
0700
0F00
0E00
0E00
0E00
1C00
1C00
1C00
1C00
1C00
ENDCHAR
STARTCHAR 0038
ENCODING 56
SWIDTH 540 0
DWIDTH 18 0
BBX 16 24 1 0
BITMAP
07E0
1FF8
3FFC
3C3C
781E
700E
700E
381E
3C3C
1FF8
07F0
1FFC
3C3E
700E
700F
F007
E007
E007
700F
700E
7C3E
3FFC
1FF8
07E0
ENDCHAR
STARTCHAR 0039
ENCODING 57
SWIDTH 540 0
DWIDTH 18 0
BBX 16 24 1 0
BITMAP
07E0
1FF0
3FF8
3C3C
781E
700E
F00E
E007
E007
E007
700F
780F
7C3F
3FFF
1FF7
07C7
0006
000E
700E
701E
783C
3FF8
1FF0
07C0
ENDCHAR
STARTCHAR 003A
ENCODING 58
SWIDTH 270 0
DWIDTH 9 0
BBX 3 18 3 0
BITMAP
E0
E0
E0
00
00
00
00
00
00
00
00
00
00
00
00
E0
E0
E0
ENDCHAR
STARTCHAR 003B
ENCODING 59
SWIDTH 270 0
DWIDTH 9 0
BBX 3 23 3 -5
BITMAP
E0
E0
E0
00
00
00
00
00
00
00
00
00
00
00
00
E0
E0
E0
20
60
60
C0
80
ENDCHAR
STARTCHAR 003C
ENCODING 60
SWIDTH 570 0
DWIDTH 19 0
BBX 15 15 2 4
BITMAP
0002
000E
007E
03FC
0FE0
7F80
FC00
E000
FC00
7F80
0FE0
03FC
007E
001E
0002
ENDCHAR
STARTCHAR 003D
ENCODING 61
SWIDTH 570 0
DWIDTH 19 0
BBX 15 10 2 7
BITMAP
FFFE
FFFE
FFFE
0000
0000
0000
0000
FFFE
FFFE
FFFE
ENDCHAR
STARTCHAR 003E
ENCODING 62
SWIDTH 570 0
DWIDTH 19 0
BBX 15 15 2 4
BITMAP
8000
F000
FC00
7F80
0FF0
01FC
007E
000E
007E
01FC
0FF0
7F80
FC00
F000
8000
ENDCHAR
STARTCHAR 003F
ENCODING 63
SWIDTH 540 0
DWIDTH 18 0
BBX 16 24 1 0
BITMAP
07E0
1FF8
3FFC
7C3E
780E
700F
F007
0007
000E
001E
003C
0078
00F0
00E0
01E0
01C0
01C0
0180
0180
0000
0000
03C0
03C0
03C0
ENDCHAR
STARTCHAR 0040
ENCODING 64
SWIDTH 1020 0
DWIDTH 34 0
BBX 30 31 2 -7
BITMAP
001FF000
00FFFE00
01FFFF00
07F01FC0
0F8003E0
1E0000E0
1C0F0C70
383FDC30
307FFC38
70F8FC18
60E07C18
E1C03818
E1C0381C
C3C03818
C3803818
C3803818
C3803038
C3807030
C3807070
E3C0F0E0
E1E3F3C0
61FFFFC0
70FE7F00
703C3E00
3800001C
1E000038
1F0000F0
07F007E0
03FFFFC0
00FFFF00
001FF800
ENDCHAR
STARTCHAR 0041
ENCODING 65
SWIDTH 660 0
DWIDTH 22 0
BBX 22 24 0 0
BITMAP
007800
00F800
00F800
00FC00
01DC00
01DE00
01CE00
038E00
038700
078700
070780
070380
0E0380
0E01C0
0FFFC0
1FFFE0
1FFFE0
3C00E0
3800F0
380070
780078
700038
700038
E0003C
ENDCHAR
STARTCHAR 0042
ENCODING 66
SWIDTH 660 0
DWIDTH 22 0
BBX 18 24 2 0
BITMAP
FFF800
FFFE00
FFFF00
F00F80
F00780
F00380
F00380
F00380
F00700
F00F00
FFFE00
FFFE00
FFFF00
F00780
F003C0
F001C0
F001C0
F001C0
F001C0
F003C0
F00780
FFFF80
FFFF00
FFFC00
ENDCHAR
STARTCHAR 0043
ENCODING 67
SWIDTH 720 0
DWIDTH 24 0
BBX 20 24 2 0
BITMAP
01FC00
07FF00
1FFFC0
3F07C0
3C01E0
7800F0
700070
F00040
E00000
E00000
E00000
E00000
E00000
E00000
E00000
E00040
F00070
700070
7800F0
3C01E0
3F07C0
1FFFC0
07FF00
01FC00
ENDCHAR
STARTCHAR 0044
ENCODING 68
SWIDTH 720 0
DWIDTH 24 0
BBX 19 24 3 0
BITMAP
FFF000
FFFE00
FFFF00
E00F80
E00780
E003C0
E001C0
E001E0
E000E0
E000E0
E000E0
E000E0
E000E0
E000E0
E000E0
E001E0
E001E0
E001C0
E003C0
E00780
E00F80
FFFF00
FFFE00
FFF000
ENDCHAR
STARTCHAR 0045
ENCODING 69
SWIDTH 660 0
DWIDTH 22 0
BBX 17 24 3 0
BITMAP
FFFF80
FFFF80
FFFF80
E00000
E00000
E00000
E00000
E00000
E00000
E00000
FFFF00
FFFF00
FFFF00
E00000
E00000
E00000
E00000
E00000
E00000
E00000
E00000
FFFF80
FFFF80
FFFF80
ENDCHAR
STARTCHAR 0046
ENCODING 70
SWIDTH 600 0
DWIDTH 20 0
BBX 16 24 3 0
BITMAP
FFFF
FFFF
FFFF
E000
E000
E000
E000
E000
E000
E000
FFFC
FFFC
FFFC
E000
E000
E000
E000
E000
E000
E000
E000
E000
E000
E000
ENDCHAR
STARTCHAR 0047
ENCODING 71
SWIDTH 780 0
DWIDTH 26 0
BBX 22 24 2 0
BITMAP
00FE00
07FF80
0FFFE0
1F03F0
3C00F0
780078
700038
F00030
F00000
E00000
E00000
E00000
E00FFC
E00FFC
E00FFC
E0001C
F0001C
70001C
78001C
3C003C
1F01FC
0FFFF0
07FFC0
00FF00
ENDCHAR
STARTCHAR 0048
ENCODING 72
SWIDTH 720 0
DWIDTH 24 0
BBX 18 24 3 0
BITMAP
E001C0
E001C0
E001C0
E001C0
E001C0
E001C0
E001C0
E001C0
E001C0
E001C0
FFFFC0
FFFFC0
FFFFC0
E001C0
E001C0
E001C0
E001C0
E001C0
E001C0
E001C0
E001C0
E001C0
E001C0
E001C0
ENDCHAR
STARTCHAR 0049
ENCODING 73
SWIDTH 270 0
DWIDTH 9 0
BBX 3 24 3 0
BITMAP
E0
E0
E0
E0
E0
E0
E0
E0
E0
E0
E0
E0
E0
E0
E0
E0
E0
E0
E0
E0
E0
E0
E0
E0
ENDCHAR
STARTCHAR 004A
ENCODING 74
SWIDTH 510 0
DWIDTH 17 0
BBX 13 24 1 0
BITMAP
0038
0038
0038
0038
0038
0038
0038
0038
0038
0038
0038
0038
0038
0038
0038
0038
0038
E038
E038
E078
F0F0
7FF0
3FE0
1F80
ENDCHAR
STARTCHAR 004B
ENCODING 75
SWIDTH 660 0
DWIDTH 22 0
BBX 20 24 2 0
BITMAP
F001E0
F003C0
F00780
F00F00
F01E00
F03C00
F07800
F0F000
F1E000
F3C000
F7C000
FFE000
FEF000
FCF000
F87800
F03C00
F03C00
F01E00
F00F00
F00780
F00780
F003C0
F001E0
F001F0
ENDCHAR
STARTCHAR 004C
ENCODING 76
SWIDTH 540 0
DWIDTH 18 0
BBX 15 24 2 0
BITMAP
F000
F000
F000
F000
F000
F000
F000
F000
F000
F000
F000
F000
F000
F000
F000
F000
F000
F000
F000
F000
F000
FFFE
FFFE
FFFE
ENDCHAR
STARTCHAR 004D
ENCODING 77
SWIDTH 810 0
DWIDTH 27 0
BBX 23 24 2 0
BITMAP
F8001E
FC003E
FC003E
EC003E
EE007E
EE006E
E6006E
E700EE
E700CE
E300CE
E381CE
E3818E
E1838E
E1C38E
E1C30E
E0C70E
E0E70E
E0E60E
E06E0E
E07E0E
E07C0E
E07C0E
E03C0E
E0380E
ENDCHAR
STARTCHAR 004E
ENCODING 78
SWIDTH 720 0
DWIDTH 24 0
BBX 18 24 3 0
BITMAP
E001C0
F001C0
F001C0
F801C0
FC01C0
FC01C0
EE01C0
E601C0
E701C0
E381C0
E381C0
E1C1C0
E0E1C0
E0E1C0
E071C0
E031C0
E039C0
E01DC0
E01DC0
E00FC0
E007C0
E007C0
E003C0
E001C0
ENDCHAR
STARTCHAR 004F
ENCODING 79
SWIDTH 780 0
DWIDTH 26 0
BBX 22 24 2 0
BITMAP
01FC00
07FF80
0FFFC0
1F03E0
3C00F0
780078
700038
F00038
E0003C
E0001C
E0001C
E0001C
E0001C
E0001C
E0001C
E0003C
F00038
700038
780078
3C00F0
1F03E0
0FFFC0
07FF80
01FC00
ENDCHAR
STARTCHAR 0050
ENCODING 80
SWIDTH 660 0
DWIDTH 22 0
BBX 18 24 3 0
BITMAP
FFF800
FFFE00
FFFF00
E00F80
E00380
E00380
E003C0
E003C0
E00380
E00780
E00F80
FFFF00
FFFE00
FFF800
E00000
E00000
E00000
E00000
E00000
E00000
E00000
E00000
E00000
E00000
ENDCHAR
STARTCHAR 0051
ENCODING 81
SWIDTH 780 0
DWIDTH 26 0
BBX 23 25 1 -1
BITMAP
00FE00
03FFC0
0FFFE0
1F81F0
1E0078
3C003C
78003C
70001C
70001E
70000E
F0000E
F0000E
F0000E
F0000E
70000E
70001E
70001C
780C3C
3C0F38
1E07F8
1F81F0
0FFFF0
03FFFC
00FF3E
00000E
ENDCHAR
STARTCHAR 0052
ENCODING 82
SWIDTH 720 0
DWIDTH 24 0
BBX 20 24 3 0
BITMAP
FFFC00
FFFF00
FFFF80
E007C0
E001C0
E001C0
E001C0
E001C0
E003C0
E007C0
FFFF80
FFFF00
FFFC00
E07800
E03C00
E01E00
E00F00
E00F00
E00780
E003C0
E003C0
E001E0
E000E0
E000F0
ENDCHAR
STARTCHAR 0053
ENCODING 83
SWIDTH 660 0
DWIDTH 22 0
BBX 18 24 2 0
BITMAP
07F000
1FFE00
3FFF00
7C0F80
700780
F00380
E003C0
F00000
780000
7E0000
3FE000
0FFC00
01FF00
001F80
0003C0
0001C0
E001C0
E001C0
E001C0
F003C0
7C0780
3FFF00
1FFE00
07F800
ENDCHAR
STARTCHAR 0054
ENCODING 84
SWIDTH 600 0
DWIDTH 20 0
BBX 19 24 1 0
BITMAP
FFFFE0
FFFFE0
FFFFE0
00E000
00E000
00E000
00E000
00E000
00E000
00E000
00E000
00E000
00E000
00E000
00E000
00E000
00E000
00E000
00E000
00E000
00E000
00E000
00E000
00E000
ENDCHAR
STARTCHAR 0055
ENCODING 85
SWIDTH 720 0
DWIDTH 24 0
BBX 18 24 3 0
BITMAP
E001C0
E001C0
E001C0
E001C0
E001C0
E001C0
E001C0
E001C0
E001C0
E001C0
E001C0
E001C0
E001C0
E001C0
E001C0
E001C0
E001C0
E001C0
F003C0
F00380
7C0F80
3FFF00
1FFE00
07F800
ENDCHAR
STARTCHAR 0056
ENCODING 86
SWIDTH 660 0
DWIDTH 22 0
BBX 22 24 0 0
BITMAP
F0003C
700038
700038
780070
380070
380070
1C00E0
1C00E0
1E01C0
0E01C0
0E01C0
070380
070380
070380
038700
038700
038600
01CE00
01CE00
00DC00
00FC00
00F800
007800
007800
ENDCHAR
STARTCHAR 0057
ENCODING 87
SWIDTH 930 0
DWIDTH 31 0
BBX 30 24 1 0
BITMAP
E007801C
E00F8038
E00F8038
E00D8038
700DC038
701DC070
701DC070
7018E070
3838E060
3838E0E0
383860E0
383070E0
187070C0
1C7071C0
1C7031C0
1CE039C0
0CE03980
0EE03B80
0EC01B80
07C01F80
07C01F00
07C00F00
07800F00
03800E00
ENDCHAR
STARTCHAR 0058
ENCODING 88
SWIDTH 660 0
DWIDTH 22 0
BBX 21 24 0 0
BITMAP
380078
3C0070
1E00E0
0E01E0
0F03C0
078380
038700
03CF00
01EE00
00FC00
007C00
007800
007C00
00FC00
01FE00
03CF00
038780
078780
0F03C0
1E01E0
1C01E0
3C00F0
780078
F00038
ENDCHAR
STARTCHAR 0059
ENCODING 89
SWIDTH 660 0
DWIDTH 22 0
BBX 21 24 0 0
BITMAP
F00038
780078
380070
3C00E0
1E01E0
0E01C0
0F0380
078780
038700
03CE00
01FE00
00FC00
00F800
007800
007000
007000
007000
007000
007000
007000
007000
007000
007000
007000
ENDCHAR
STARTCHAR 005A
ENCODING 90
SWIDTH 600 0
DWIDTH 20 0
BBX 18 24 1 0
BITMAP
7FFFC0
7FFFC0
7FFFC0
0003C0
000780
000F00
001E00
001C00
003C00
007800
00F000
01E000
03C000
038000
078000
0F0000
1E0000
3C0000
380000
780000
F00000
FFFFC0
FFFFC0
FFFFC0
ENDCHAR
STARTCHAR 005B
ENCODING 91
SWIDTH 270 0
DWIDTH 9 0
BBX 7 31 2 -7
BITMAP
FE
FE
FE
E0
E0
E0
E0
E0
E0
E0
E0
E0
E0
E0
E0
E0
E0
E0
E0
E0
E0
E0
E0
E0
E0
E0
E0
E0
FE
FE
FE
ENDCHAR
STARTCHAR 005C
ENCODING 92
SWIDTH 270 0
DWIDTH 9 0
BBX 9 24 0 0
BITMAP
C000
E000
6000
6000
7000
3000
3000
3000
3800
1800
1800
1C00
0C00
0C00
0C00
0E00
0600
0600
0700
0300
0300
0300
0380
0180
ENDCHAR
STARTCHAR 005D
ENCODING 93
SWIDTH 270 0
DWIDTH 9 0
BBX 6 31 1 -7
BITMAP
FC
FC
FC
1C
1C
1C
1C
1C
1C
1C
1C
1C
1C
1C
1C
1C
1C
1C
1C
1C
1C
1C
1C
1C
1C
1C
1C
1C
FC
FC
FC
ENDCHAR
STARTCHAR 005E
ENCODING 94
SWIDTH 450 0
DWIDTH 15 0
BBX 13 13 1 11
BITMAP
0700
0780
0F80
0F80
0DC0
1CC0
18E0
3860
3870
7070
7038
6038
E038
ENDCHAR
STARTCHAR 005F
ENCODING 95
SWIDTH 540 0
DWIDTH 18 0
BBX 20 3 -1 -7
BITMAP
FFFFF0
FFFFF0
FFFFF0
ENDCHAR
STARTCHAR 0060
ENCODING 96
SWIDTH 330 0
DWIDTH 11 0
BBX 5 5 2 19
BITMAP
F0
70
70
38
18
ENDCHAR
STARTCHAR 0061
ENCODING 97
SWIDTH 540 0
DWIDTH 18 0
BBX 16 18 1 0
BITMAP
07F0
1FFC
3FFC
781E
700E
000E
003E
0FFE
3FFE
7FCE
780E
F00E
E00E
E01E
F07E
7FFE
3FFE
1F87
ENDCHAR
STARTCHAR 0062
ENCODING 98
SWIDTH 540 0
DWIDTH 18 0
BBX 15 24 2 0
BITMAP
E000
E000
E000
E000
E000
E000
E3C0
EFF0
FFF8
FC7C
F01C
F01E
E00E
E00E
E00E
E00E
E00E
E00E
E01E
F01C
F87C
FFF8
EFF0
E7C0
ENDCHAR
STARTCHAR 0063
ENCODING 99
SWIDTH 510 0
DWIDTH 17 0
BBX 15 18 1 0
BITMAP
07E0
1FF8
3FF8
3C3C
781E
700E
F000
E000
E000
E000
E000
F00E
700E
781E
3C3C
3FF8
1FF0
07E0
ENDCHAR
STARTCHAR 0064
ENCODING 100
SWIDTH 540 0
DWIDTH 18 0
BBX 15 24 1 0
BITMAP
000E
000E
000E
000E
000E
000E
07CE
1FEE
3FFE
7C3E
701E
700E
E00E
E00E
E00E
E00E
E00E
E00E
700E
701E
7C3E
3FFE
1FEE
07CE
ENDCHAR
STARTCHAR 0065
ENCODING 101
SWIDTH 540 0
DWIDTH 18 0
BBX 16 18 1 0
BITMAP
07E0
1FF8
3FFC
3C1E
700E
7006
E007
FFFF
FFFF
FFFF
E000
E000
7000
7807
7C1E
3FFE
1FFC
07F0
ENDCHAR
STARTCHAR 0066
ENCODING 102
SWIDTH 270 0
DWIDTH 9 0
BBX 10 24 0 0
BITMAP
07C0
0FC0
1FC0
1C00
1C00
1C00
FF80
FF80
FF80
1C00
1C00
1C00
1C00
1C00
1C00
1C00
1C00
1C00
1C00
1C00
1C00
1C00
1C00
1C00
ENDCHAR
STARTCHAR 0067
ENCODING 103
SWIDTH 540 0
DWIDTH 18 0
BBX 15 25 1 -7
BITMAP
07CE
1FFE
3FFE
7C3E
701E
700E
E00E
E00E
E00E
E00E
E00E
E00E
700E
701E
7C3E
3FFE
1FFE
07CE
000E
700E
701E
783C
3FFC
3FF8
0FE0
ENDCHAR
STARTCHAR 0068
ENCODING 104
SWIDTH 540 0
DWIDTH 18 0
BBX 14 24 2 0
BITMAP
E000
E000
E000
E000
E000
E000
E3E0
EFF8
FFF8
F83C
F01C
F01C
E01C
E01C
E01C
E01C
E01C
E01C
E01C
E01C
E01C
E01C
E01C
E01C
ENDCHAR
STARTCHAR 0069
ENCODING 105
SWIDTH 210 0
DWIDTH 7 0
BBX 3 24 2 0
BITMAP
E0
E0
E0
00
00
00
E0
E0
E0
E0
E0
E0
E0
E0
E0
E0
E0
E0
E0
E0
E0
E0
E0
E0
ENDCHAR
STARTCHAR 006A
ENCODING 106
SWIDTH 210 0
DWIDTH 7 0
BBX 6 31 -1 -7
BITMAP
1C
1C
1C
00
00
00
1C
1C
1C
1C
1C
1C
1C
1C
1C
1C
1C
1C
1C
1C
1C
1C
1C
1C
1C
1C
1C
1C
FC
F8
F0
ENDCHAR
STARTCHAR 006B
ENCODING 107
SWIDTH 510 0
DWIDTH 17 0
BBX 14 24 2 0
BITMAP
E000
E000
E000
E000
E000
E000
E078
E0F0
E1E0
E1C0
E380
E700
EE00
FF00
FF00
F380
E3C0
E1C0
E1E0
E0F0
E070
E078
E038
E03C
ENDCHAR
STARTCHAR 006C
ENCODING 108
SWIDTH 210 0
DWIDTH 7 0
BBX 3 24 2 0
BITMAP
E0
E0
E0
E0
E0
E0
E0
E0
E0
E0
E0
E0
E0
E0
E0
E0
E0
E0
E0
E0
E0
E0
E0
E0
ENDCHAR
STARTCHAR 006D
ENCODING 109
SWIDTH 810 0
DWIDTH 27 0
BBX 23 18 2 0
BITMAP
E3C0F8
EFF3FC
FFF7FE
F87E1E
F03C0E
F03C0E
E0380E
E0380E
E0380E
E0380E
E0380E
E0380E
E0380E
E0380E
E0380E
E0380E
E0380E
E0380E
ENDCHAR
STARTCHAR 006E
ENCODING 110
SWIDTH 540 0
DWIDTH 18 0
BBX 14 18 2 0
BITMAP
E7E0
EFF8
FFF8
F83C
F01C
F01C
E01C
E01C
E01C
E01C
E01C
E01C
E01C
E01C
E01C
E01C
E01C
E01C
ENDCHAR
STARTCHAR 006F
ENCODING 111
SWIDTH 540 0
DWIDTH 18 0
BBX 16 18 1 0
BITMAP
07E0
1FF8
3FFC
7C3E
780E
700F
E007
E007
E007
E007
E007
E007
700F
780E
7C3E
3FFC
1FF8
07E0
ENDCHAR
STARTCHAR 0070
ENCODING 112
SWIDTH 540 0
DWIDTH 18 0
BBX 15 25 2 -7
BITMAP
E7C0
EFF0
FFF8
FC7C
F01C
F01E
E00E
E00E
E00E
E00E
E00E
E00E
E01E
F01C
F87C
FFF8
EFF0
E7C0
E000
E000
E000
E000
E000
E000
E000
ENDCHAR
STARTCHAR 0071
ENCODING 113
SWIDTH 540 0
DWIDTH 18 0
BBX 15 25 1 -7
BITMAP
07CE
1FEE
3FFE
7C3E
701E
700E
E00E
E00E
E00E
E00E
E00E
E00E
700E
781E
3C3E
3FFE
1FEE
07CE
000E
000E
000E
000E
000E
000E
000E
ENDCHAR
STARTCHAR 0072
ENCODING 114
SWIDTH 330 0
DWIDTH 11 0
BBX 9 18 2 0
BITMAP
E780
EF80
FF80
F800
F000
E000
E000
E000
E000
E000
E000
E000
E000
E000
E000
E000
E000
E000
ENDCHAR
STARTCHAR 0073
ENCODING 115
SWIDTH 510 0
DWIDTH 17 0
BBX 14 18 1 0
BITMAP
0FC0
3FF0
7FF8
7038
6018
7000
7C00
7F80
3FF0
0FF8
01FC
003C
E01C
F01C
783C
7FF8
3FF0
0FC0
ENDCHAR
STARTCHAR 0074
ENCODING 116
SWIDTH 270 0
DWIDTH 9 0
BBX 8 24 1 0
BITMAP
08
38
38
38
38
38
FF
FF
FF
38
38
38
38
38
38
38
38
38
38
38
38
3F
3F
1F
ENDCHAR
STARTCHAR 0075
ENCODING 117
SWIDTH 540 0
DWIDTH 18 0
BBX 14 18 2 0
BITMAP
E01C
E01C
E01C
E01C
E01C
E01C
E01C
E01C
E01C
E01C
E01C
E01C
E01C
F03C
F87C
7FFC
3FDC
1F1C
ENDCHAR
STARTCHAR 0076
ENCODING 118
SWIDTH 510 0
DWIDTH 17 0
BBX 15 18 1 0
BITMAP
E00E
E00E
E01C
701C
7018
7038
3838
3830
3870
1C70
1CE0
0CE0
0EE0
0FC0
07C0
07C0
0780
0380
ENDCHAR
STARTCHAR 0077
ENCODING 119
SWIDTH 720 0
DWIDTH 24 0
BBX 23 18 0 0
BITMAP
E03C06
603C0E
703C0E
703C0E
707C0C
306E1C
386E1C
386E18
18E638
1CC738
1CC730
1CC330
0DC370
0F83F0
0F83E0
0781E0
0781E0
0701C0
ENDCHAR
STARTCHAR 0078
ENCODING 120
SWIDTH 510 0
DWIDTH 17 0
BBX 15 18 1 0
BITMAP
F01C
703C
7838
3870
1C70
1EE0
0FC0
07C0
0780
07C0
0FC0
0FE0
1CF0
3C70
3878
703C
F01C
E01E
ENDCHAR
STARTCHAR 0079
ENCODING 121
SWIDTH 510 0
DWIDTH 17 0
BBX 15 25 1 -7
BITMAP
E00E
E00E
F01C
701C
701C
3838
3838
3838
1C70
1C70
1C70
0EE0
0EE0
0EC0
07C0
07C0
0380
0380
0380
0700
0700
0E00
7E00
7C00
7800
ENDCHAR
STARTCHAR 007A
ENCODING 122
SWIDTH 510 0
DWIDTH 17 0
BBX 15 18 1 0
BITMAP
FFFC
FFFC
FFFC
0038
0078
00F0
01E0
03C0
0380
0700
0E00
1E00
3C00
7800
F000
FFFE
FFFE
FFFE
ENDCHAR
STARTCHAR 007B
ENCODING 123
SWIDTH 330 0
DWIDTH 11 0
BBX 9 31 1 -7
BITMAP
0780
0F80
0F80
1E00
1C00
1C00
1C00
1C00
1C00
1C00
1C00
1C00
1C00
3800
F000
E000
F000
3800
1C00
1C00
1C00
1C00
1C00
1C00
1C00
1C00
1C00
1E00
0F80
0F80
0780
ENDCHAR
STARTCHAR 007C
ENCODING 124
SWIDTH 270 0
DWIDTH 9 0
BBX 3 31 3 -7
BITMAP
E0
E0
E0
E0
E0
E0
E0
E0
E0
E0
E0
E0
E0
E0
E0
E0
E0
E0
E0
E0
E0
E0
E0
E0
E0
E0
E0
E0
E0
E0
E0
ENDCHAR
STARTCHAR 007D
ENCODING 125
SWIDTH 330 0
DWIDTH 11 0
BBX 9 31 1 -7
BITMAP
F000
F800
F800
3C00
1C00
1C00
1C00
1C00
1C00
1C00
1C00
1C00
1C00
0E00
0780
0380
0780
0E00
1C00
1C00
1C00
1C00
1C00
1C00
1C00
1C00
1C00
3C00
F800
F800
F000
ENDCHAR
STARTCHAR 007E
ENCODING 126
SWIDTH 570 0
DWIDTH 19 0
BBX 17 6 1 8
BITMAP
1E0000
7F8080
7FE380
E3FF80
C0FF00
803C00
ENDCHAR
ENDFONT
