STARTFONT 2.1
COMMENT
COMMENT Converted from OpenType font "Arial_Bold.ttf" by "otf2bdf 3.0".
COMMENT
FONT -FreeType-Arial-Bold-R-Normal--19-140-100-100-P-92-ISO10646-1
SIZE 14 100 100
FONTBOUNDINGBOX 19 19 -1 -4
STARTPROPERTIES 19
FOUNDRY "FreeType"
FAMILY_NAME "Arial"
WEIGHT_NAME "Bold"
SLANT "R"
SETWIDTH_NAME "Normal"
ADD_STYLE_NAME ""
PIXEL_SIZE 19
POINT_SIZE 140
RESOLUTION_X 100
RESOLUTION_Y 100
SPACING "P"
AVERAGE_WIDTH 92
CHARSET_REGISTRY "ISO10646"
CHARSET_ENCODING "1"
FONT_ASCENT 17
FONT_DESCENT 4
COPYRIGHT "© 2006 The Monotype Corporation. All Rights Reserved."
_OTF_FONTFILE "Arial_Bold.ttf"
_OTF_PSNAME "Arial-BoldMT"
ENDPROPERTIES
CHARS 95
STARTCHAR 0020
ENCODING 32
SWIDTH 257 0
DWIDTH 5 0
BBX 0 0 0 0
BITMAP
ENDCHAR
STARTCHAR 0021
ENCODING 33
SWIDTH 308 0
DWIDTH 6 0
BBX 3 14 2 0
BITMAP
E0
E0
E0
C0
C0
C0
C0
C0
C0
C0
00
C0
C0
C0
ENDCHAR
STARTCHAR 0022
ENCODING 34
SWIDTH 462 0
DWIDTH 9 0
BBX 7 5 1 9
BITMAP
EE
EE
EE
EE
E6
ENDCHAR
STARTCHAR 0023
ENCODING 35
SWIDTH 565 0
DWIDTH 11 0
BBX 10 14 0 0
BITMAP
1CC0
19C0
1980
FFC0
FFC0
3980
3300
3300
FFC0
FFC0
7300
6600
6600
6600
ENDCHAR
STARTCHAR 0024
ENCODING 36
SWIDTH 565 0
DWIDTH 11 0
BBX 9 17 1 -2
BITMAP
0800
3C00
7E00
EF00
CB00
E800
F800
7E00
3F00
0F80
0B80
CB80
EB00
7F00
3C00
0800
0800
ENDCHAR
STARTCHAR 0025
ENCODING 37
SWIDTH 874 0
DWIDTH 17 0
BBX 15 15 1 -1
BITMAP
7830
D860
CC60
CCC0
CCC0
C980
7980
0300
033C
0266
0666
0466
0C66
0C66
183C
ENDCHAR
STARTCHAR 0026
ENCODING 38
SWIDTH 720 0
DWIDTH 14 0
BBX 12 14 1 0
BITMAP
1F00
3F80
3180
3180
3B80
1F00
3E00
7E00
E760
E3E0
E1C0
E3E0
7FF0
3E20
ENDCHAR
STARTCHAR 0027
ENCODING 39
SWIDTH 257 0
DWIDTH 5 0
BBX 3 5 1 9
BITMAP
E0
E0
E0
E0
C0
ENDCHAR
STARTCHAR 0028
ENCODING 40
SWIDTH 308 0
DWIDTH 6 0
BBX 4 18 1 -4
BITMAP
10
30
30
60
60
E0
E0
E0
C0
C0
E0
E0
E0
60
60
30
30
10
ENDCHAR
STARTCHAR 0029
ENCODING 41
SWIDTH 308 0
DWIDTH 6 0
BBX 4 18 1 -4
BITMAP
C0
C0
60
60
70
30
30
30
30
30
30
30
30
70
60
60
C0
C0
ENDCHAR
STARTCHAR 002A
ENCODING 42
SWIDTH 360 0
DWIDTH 7 0
BBX 7 7 0 7
BITMAP
10
56
FE
38
38
6C
28
ENDCHAR
STARTCHAR 002B
ENCODING 43
SWIDTH 565 0
DWIDTH 11 0
BBX 9 11 1 2
BITMAP
1C00
1C00
1C00
1C00
FF80
FF80
FF80
1C00
1C00
1C00
1C00
ENDCHAR
STARTCHAR 002C
ENCODING 44
SWIDTH 257 0
DWIDTH 5 0
BBX 3 6 1 -3
BITMAP
E0
E0
E0
20
40
C0
ENDCHAR
STARTCHAR 002D
ENCODING 45
SWIDTH 308 0
DWIDTH 6 0
BBX 5 3 1 4
BITMAP
F8
F8
F8
ENDCHAR
STARTCHAR 002E
ENCODING 46
SWIDTH 257 0
DWIDTH 5 0
BBX 3 3 1 0
BITMAP
E0
E0
E0
ENDCHAR
STARTCHAR 002F
ENCODING 47
SWIDTH 257 0
DWIDTH 5 0
BBX 5 14 0 0
BITMAP
18
18
18
30
30
30
30
20
60
60
60
40
C0
C0
ENDCHAR
STARTCHAR 0030
ENCODING 48
SWIDTH 565 0
DWIDTH 11 0
BBX 9 14 1 0
BITMAP
3C00
7E00
E700
E300
E300
E380
E380
E380
E380
E300
E300
E700
7E00
3C00
ENDCHAR
STARTCHAR 0031
ENCODING 49
SWIDTH 565 0
DWIDTH 11 0
BBX 6 14 1 0
BITMAP
0C
1C
3C
FC
EC
CC
0C
0C
0C
0C
0C
0C
0C
0C
ENDCHAR
STARTCHAR 0032
ENCODING 50
SWIDTH 565 0
DWIDTH 11 0
BBX 9 14 1 0
BITMAP
3E00
7F00
E300
C380
0380
0700
0700
0E00
1E00
3C00
7800
F000
FF80
FF80
ENDCHAR
STARTCHAR 0033
ENCODING 51
SWIDTH 565 0
DWIDTH 11 0
BBX 9 14 1 0
BITMAP
3C00
7E00
E700
C300
0700
1E00
1E00
0700
0380
0380
C380
E700
7F00
3C00
ENDCHAR
STARTCHAR 0034
ENCODING 52
SWIDTH 565 0
DWIDTH 11 0
BBX 10 14 0 0
BITMAP
0300
0700
0700
0F00
1F00
1B00
3300
7300
6300
FFC0
FFC0
0300
0300
0300
ENDCHAR
STARTCHAR 0035
ENCODING 53
SWIDTH 565 0
DWIDTH 11 0
BBX 9 14 1 0
BITMAP
7F00
7F00
6000
6000
7E00
FF00
E380
0380
0380
0380
E380
E300
7F00
3C00
ENDCHAR
STARTCHAR 0036
ENCODING 54
SWIDTH 565 0
DWIDTH 11 0
BBX 9 14 1 0
BITMAP
1E00
7F00
6380
E000
FE00
FF00
E300
E380
E380
E380
E380
7300
7F00
3E00
ENDCHAR
STARTCHAR 0037
ENCODING 55
SWIDTH 565 0
DWIDTH 11 0
BBX 9 14 1 0
BITMAP
FF80
FF80
0700
0700
0E00
0C00
1C00
1800
1800
3800
3800
3000
3000
3000
ENDCHAR
STARTCHAR 0038
ENCODING 56
SWIDTH 565 0
DWIDTH 11 0
BBX 9 14 1 0
BITMAP
3C00
7F00
E700
E300
E300
E700
7E00
7E00
E300
C380
C380
E300
7F00
3E00
ENDCHAR
STARTCHAR 0039
ENCODING 57
SWIDTH 565 0
DWIDTH 11 0
BBX 9 14 1 0
BITMAP
3C00
7E00
E700
C300
C380
C380
C380
E780
7F80
3B00
0300
E700
FE00
7C00
ENDCHAR
STARTCHAR 003A
ENCODING 58
SWIDTH 308 0
DWIDTH 6 0
BBX 2 11 2 0
BITMAP
C0
C0
C0
00
00
00
00
00
C0
C0
C0
ENDCHAR
STARTCHAR 003B
ENCODING 59
SWIDTH 308 0
DWIDTH 6 0
BBX 2 14 2 -3
BITMAP
C0
C0
C0
00
00
00
00
00
C0
C0
C0
40
C0
80
ENDCHAR
STARTCHAR 003C
ENCODING 60
SWIDTH 565 0
DWIDTH 11 0
BBX 9 10 1 2
BITMAP
0080
0380
1F80
7F00
F000
F000
7F00
1F80
0380
0080
ENDCHAR
STARTCHAR 003D
ENCODING 61
SWIDTH 565 0
DWIDTH 11 0
BBX 9 8 1 3
BITMAP
FF80
FF80
FF80
0000
0000
FF80
FF80
FF80
ENDCHAR
STARTCHAR 003E
ENCODING 62
SWIDTH 565 0
DWIDTH 11 0
BBX 9 10 1 2
BITMAP
8000
E000
FC00
3F00
0780
0780
7F00
FC00
E000
8000
ENDCHAR
STARTCHAR 003F
ENCODING 63
SWIDTH 617 0
DWIDTH 12 0
BBX 10 14 1 0
BITMAP
3E00
7F80
E180
E1C0
01C0
0380
0700
0E00
0C00
0C00
0000
0C00
0C00
0C00
ENDCHAR
STARTCHAR 0040
ENCODING 64
SWIDTH 977 0
DWIDTH 19 0
BBX 17 18 1 -4
BITMAP
03F000
0FFC00
3C0E00
73DB00
67F900
CE7980
CC3980
DC3180
9C3180
983180
9C7300
DCF700
CFFE00
E77800
700180
3C0700
1FFE00
07F800
ENDCHAR
STARTCHAR 0041
ENCODING 65
SWIDTH 720 0
DWIDTH 14 0
BBX 13 14 0 0
BITMAP
0700
0780
0F80
0FC0
0DC0
1CC0
18E0
38E0
3FF0
3FF0
7FF0
7038
6038
E038
ENDCHAR
STARTCHAR 0042
ENCODING 66
SWIDTH 720 0
DWIDTH 14 0
BBX 12 14 1 0
BITMAP
FF80
FFC0
FFE0
E0E0
E0E0
FFC0
FFC0
FFE0
E0F0
E070
E070
FFE0
FFE0
FFC0
ENDCHAR
STARTCHAR 0043
ENCODING 67
SWIDTH 720 0
DWIDTH 14 0
BBX 12 14 1 0
BITMAP
0F80
3FC0
7FE0
70F0
E040
E000
E000
E000
E000
E040
70F0
7FE0
3FC0
0F80
ENDCHAR
STARTCHAR 0044
ENCODING 68
SWIDTH 720 0
DWIDTH 14 0
BBX 12 14 1 0
BITMAP
FF80
FFC0
FFE0
E0E0
E0F0
E070
E070
E070
E070
E070
E0E0
FFE0
FFC0
FF80
ENDCHAR
STARTCHAR 0045
ENCODING 69
SWIDTH 668 0
DWIDTH 13 0
BBX 11 14 1 0
BITMAP
FFC0
FFC0
FFC0
E000
E000
FFC0
FFC0
FFC0
E000
E000
E000
FFE0
FFE0
FFE0
ENDCHAR
STARTCHAR 0046
ENCODING 70
SWIDTH 617 0
DWIDTH 12 0
BBX 10 14 1 0
BITMAP
FFC0
FFC0
FFC0
E000
E000
FF80
FF80
FF80
E000
E000
E000
E000
E000
E000
ENDCHAR
STARTCHAR 0047
ENCODING 71
SWIDTH 771 0
DWIDTH 15 0
BBX 13 14 1 0
BITMAP
0FC0
3FE0
7FF0
7070
E020
E000
E000
E1F8
E1F8
E1F8
7838
7FF0
3FE0
0F80
ENDCHAR
STARTCHAR 0048
ENCODING 72
SWIDTH 720 0
DWIDTH 14 0
BBX 11 14 1 0
BITMAP
E060
E060
E060
E060
E060
FFE0
FFE0
FFE0
E060
E060
E060
E060
E060
E060
ENDCHAR
STARTCHAR 0049
ENCODING 73
SWIDTH 257 0
DWIDTH 5 0
BBX 3 14 1 0
BITMAP
E0
E0
E0
E0
E0
E0
E0
E0
E0
E0
E0
E0
E0
E0
ENDCHAR
STARTCHAR 004A
ENCODING 74
SWIDTH 565 0
DWIDTH 11 0
BBX 9 14 0 0
BITMAP
0380
0380
0380
0380
0380
0380
0380
0380
0380
E380
E380
7F80
7F00
3E00
ENDCHAR
STARTCHAR 004B
ENCODING 75
SWIDTH 720 0
DWIDTH 14 0
BBX 12 14 1 0
BITMAP
E0F0
E1E0
E3C0
E780
EF00
EE00
FF00
FF80
F380
E1C0
E1C0
E0E0
E0F0
E070
ENDCHAR
STARTCHAR 004C
ENCODING 76
SWIDTH 617 0
DWIDTH 12 0
BBX 10 14 1 0
BITMAP
E000
E000
E000
E000
E000
E000
E000
E000
E000
E000
E000
FFC0
FFC0
FFC0
ENDCHAR
STARTCHAR 004D
ENCODING 77
SWIDTH 822 0
DWIDTH 16 0
BBX 13 14 1 0
BITMAP
F878
F878
F878
F8F8
FCF8
ECD8
ECD8
EDD8
EFD8
EF98
E798
E798
E798
E718
ENDCHAR
STARTCHAR 004E
ENCODING 78
SWIDTH 720 0
DWIDTH 14 0
BBX 11 14 1 0
BITMAP
E060
F060
F860
F860
FC60
FC60
EE60
E760
E760
E3E0
E3E0
E1E0
E0E0
E0E0
ENDCHAR
STARTCHAR 004F
ENCODING 79
SWIDTH 771 0
DWIDTH 15 0
BBX 13 14 1 0
BITMAP
0F80
3FE0
7FF0
7070
E038
E038
E038
E038
E038
E038
F0F0
7FF0
3FE0
0F80
ENDCHAR
STARTCHAR 0050
ENCODING 80
SWIDTH 668 0
DWIDTH 13 0
BBX 11 14 1 0
BITMAP
FF80
FFC0
FFC0
E1E0
E0E0
E1E0
FFC0
FFC0
FF80
E000
E000
E000
E000
E000
ENDCHAR
STARTCHAR 0051
ENCODING 81
SWIDTH 771 0
DWIDTH 15 0
BBX 13 15 1 -1
BITMAP
0F80
3FE0
7FF0
F070
E038
E038
E038
E038
E338
E3F8
F1F0
7FF0
3FF0
0FB8
0018
ENDCHAR
STARTCHAR 0052
ENCODING 82
SWIDTH 720 0
DWIDTH 14 0
BBX 12 14 1 0
BITMAP
FFC0
FFE0
FFE0
E0E0
E070
E0E0
FFE0
FFC0
FF00
E380
E1C0
E0E0
E0F0
E070
ENDCHAR
STARTCHAR 0053
ENCODING 83
SWIDTH 668 0
DWIDTH 13 0
BBX 11 14 1 0
BITMAP
3F00
7F80
FFC0
E1C0
E1C0
F000
7F00
1FC0
03C0
E0E0
E1E0
FFC0
7FC0
1F00
ENDCHAR
STARTCHAR 0054
ENCODING 84
SWIDTH 617 0
DWIDTH 12 0
BBX 11 14 0 0
BITMAP
FFE0
FFE0
FFE0
0E00
0E00
0E00
0E00
0E00
0E00
0E00
0E00
0E00
0E00
0E00
ENDCHAR
STARTCHAR 0055
ENCODING 85
SWIDTH 720 0
DWIDTH 14 0
BBX 11 14 1 0
BITMAP
E0E0
E0E0
E0E0
E0E0
E0E0
E0E0
E0E0
E0E0
E0E0
E0E0
70E0
7FE0
3FC0
1F80
ENDCHAR
STARTCHAR 0056
ENCODING 86
SWIDTH 668 0
DWIDTH 13 0
BBX 12 14 0 0
BITMAP
E030
6070
7070
7060
38E0
38E0
38C0
1DC0
1DC0
1D80
0F80
0F80
0F00
0700
ENDCHAR
STARTCHAR 0057
ENCODING 87
SWIDTH 925 0
DWIDTH 18 0
BBX 18 14 0 0
BITMAP
E1E1C0
E1E1C0
61E180
71F380
73F380
737380
333300
373B00
3F3F00
3E1F00
3E1E00
1E1E00
1E1E00
1C0E00
ENDCHAR
STARTCHAR 0058
ENCODING 88
SWIDTH 668 0
DWIDTH 13 0
BBX 12 14 0 0
BITMAP
7070
78E0
39E0
1DC0
1F80
0F80
0700
0F00
0F80
1FC0
3DC0
38E0
70F0
F070
ENDCHAR
STARTCHAR 0059
ENCODING 89
SWIDTH 668 0
DWIDTH 13 0
BBX 12 14 0 0
BITMAP
E070
7070
38E0
38E0
1DC0
1F80
0F80
0700
0700
0700
0700
0700
0700
0700
ENDCHAR
STARTCHAR 005A
ENCODING 90
SWIDTH 617 0
DWIDTH 12 0
BBX 11 14 0 0
BITMAP
7FE0
7FE0
7FE0
01E0
03C0
0780
0F00
1E00
3C00
3800
7000
FFE0
FFE0
FFE0
ENDCHAR
STARTCHAR 005B
ENCODING 91
SWIDTH 308 0
DWIDTH 6 0
BBX 5 18 1 -4
BITMAP
F8
F8
F8
E0
E0
E0
E0
E0
E0
E0
E0
E0
E0
E0
E0
F8
F8
F8
ENDCHAR
STARTCHAR 005C
ENCODING 92
SWIDTH 257 0
DWIDTH 5 0
BBX 5 14 0 0
BITMAP
C0
C0
40
60
60
60
20
30
30
30
30
18
18
18
ENDCHAR
STARTCHAR 005D
ENCODING 93
SWIDTH 308 0
DWIDTH 6 0
BBX 5 18 0 -4
BITMAP
F8
F8
F8
38
38
38
38
38
38
38
38
38
38
38
38
F8
F8
F8
ENDCHAR
STARTCHAR 005E
ENCODING 94
SWIDTH 565 0
DWIDTH 11 0
BBX 9 7 1 7
BITMAP
1C00
1C00
3E00
3600
7700
6300
E380
ENDCHAR
STARTCHAR 005F
ENCODING 95
SWIDTH 565 0
DWIDTH 11 0
BBX 11 2 0 -4
BITMAP
FFE0
FFE0
ENDCHAR
STARTCHAR 0060
ENCODING 96
SWIDTH 308 0
DWIDTH 6 0
BBX 3 3 1 11
BITMAP
E0
60
20
ENDCHAR
STARTCHAR 0061
ENCODING 97
SWIDTH 565 0
DWIDTH 11 0
BBX 9 11 1 0
BITMAP
3E00
7F00
E300
0F00
7F00
F300
C300
C300
E700
FF00
7B80
ENDCHAR
STARTCHAR 0062
ENCODING 98
SWIDTH 617 0
DWIDTH 12 0
BBX 10 14 1 0
BITMAP
E000
E000
E000
EF00
FF80
F380
E1C0
E1C0
E1C0
E1C0
E1C0
F380
FF80
EF00
ENDCHAR
STARTCHAR 0063
ENCODING 99
SWIDTH 565 0
DWIDTH 11 0
BBX 9 11 1 0
BITMAP
3E00
7F00
E380
E300
E000
C000
E000
E300
E380
7F00
3E00
ENDCHAR
STARTCHAR 0064
ENCODING 100
SWIDTH 617 0
DWIDTH 12 0
BBX 9 14 1 0
BITMAP
0180
0180
0180
3D80
7F80
E380
E180
C180
C180
E180
E180
E380
7F80
3D80
ENDCHAR
STARTCHAR 0065
ENCODING 101
SWIDTH 565 0
DWIDTH 11 0
BBX 9 11 1 0
BITMAP
3C00
7F00
E300
C380
FF80
FF80
C000
E000
E300
7F00
3E00
ENDCHAR
STARTCHAR 0066
ENCODING 102
SWIDTH 308 0
DWIDTH 6 0
BBX 7 14 0 0
BITMAP
3E
3E
30
FC
FC
30
30
30
30
30
30
30
30
30
ENDCHAR
STARTCHAR 0067
ENCODING 103
SWIDTH 617 0
DWIDTH 12 0
BBX 9 15 1 -4
BITMAP
3D80
7F80
E380
E180
E180
C180
E180
E180
E380
7F80
3D80
0180
E380
FF80
3E00
ENDCHAR
STARTCHAR 0068
ENCODING 104
SWIDTH 617 0
DWIDTH 12 0
BBX 9 14 1 0
BITMAP
E000
E000
E000
EF00
FF80
F380
E180
E180
E180
E180
E180
E180
E180
E180
ENDCHAR
STARTCHAR 0069
ENCODING 105
SWIDTH 257 0
DWIDTH 5 0
BBX 3 14 1 0
BITMAP
E0
E0
00
E0
E0
E0
E0
E0
E0
E0
E0
E0
E0
E0
ENDCHAR
STARTCHAR 006A
ENCODING 106
SWIDTH 257 0
DWIDTH 5 0
BBX 5 18 -1 -4
BITMAP
38
38
00
38
38
38
38
38
38
38
38
38
38
38
38
38
F8
F0
ENDCHAR
STARTCHAR 006B
ENCODING 107
SWIDTH 565 0
DWIDTH 11 0
BBX 9 14 1 0
BITMAP
E000
E000
E000
E380
E700
EE00
FC00
FC00
FE00
FE00
E700
E700
E380
E380
ENDCHAR
STARTCHAR 006C
ENCODING 108
SWIDTH 257 0
DWIDTH 5 0
BBX 3 14 1 0
BITMAP
E0
E0
E0
E0
E0
E0
E0
E0
E0
E0
E0
E0
E0
E0
ENDCHAR
STARTCHAR 006D
ENCODING 109
SWIDTH 874 0
DWIDTH 17 0
BBX 15 11 1 0
BITMAP
EE38
FFFC
F38E
E38E
E38E
E38E
E38E
E38E
E38E
E38E
E38E
ENDCHAR
STARTCHAR 006E
ENCODING 110
SWIDTH 617 0
DWIDTH 12 0
BBX 9 11 1 0
BITMAP
EF00
FF80
F380
E180
E180
E180
E180
E180
E180
E180
E180
ENDCHAR
STARTCHAR 006F
ENCODING 111
SWIDTH 617 0
DWIDTH 12 0
BBX 10 11 1 0
BITMAP
1E00
7F00
F380
E1C0
E1C0
C1C0
E1C0
E1C0
F380
7F00
1E00
ENDCHAR
STARTCHAR 0070
ENCODING 112
SWIDTH 617 0
DWIDTH 12 0
BBX 10 15 1 -4
BITMAP
EF00
FF80
F380
E1C0
E1C0
E1C0
E1C0
E1C0
F380
FF80
EF00
E000
E000
E000
E000
ENDCHAR
STARTCHAR 0071
ENCODING 113
SWIDTH 617 0
DWIDTH 12 0
BBX 9 15 1 -4
BITMAP
3D80
7F80
E380
E180
E180
E180
E180
E180
E380
7F80
3D80
0180
0180
0180
0180
ENDCHAR
STARTCHAR 0072
ENCODING 114
SWIDTH 360 0
DWIDTH 7 0
BBX 7 11 1 0
BITMAP
FE
FC
F0
E0
E0
E0
E0
E0
E0
E0
E0
ENDCHAR
STARTCHAR 0073
ENCODING 115
SWIDTH 565 0
DWIDTH 11 0
BBX 9 11 1 0
BITMAP
7E00
FF00
C300
E000
FC00
7F00
1F80
0380
C300
FF00
3E00
ENDCHAR
STARTCHAR 0074
ENCODING 116
SWIDTH 308 0
DWIDTH 6 0
BBX 6 14 0 0
BITMAP
10
30
70
FC
FC
70
70
70
70
70
70
30
3C
3C
ENDCHAR
STARTCHAR 0075
ENCODING 117
SWIDTH 617 0
DWIDTH 12 0
BBX 9 11 1 0
BITMAP
E180
E180
E180
E180
E180
E180
E180
E380
E380
7F80
3D80
ENDCHAR
STARTCHAR 0076
ENCODING 118
SWIDTH 565 0
DWIDTH 11 0
BBX 10 11 0 0
BITMAP
E1C0
61C0
7180
7380
3380
3B00
3B00
1F00
1E00
0E00
0E00
ENDCHAR
STARTCHAR 0077
ENCODING 119
SWIDTH 771 0
DWIDTH 15 0
BBX 15 11 0 0
BITMAP
E38E
638C
638C
779C
76D8
36D8
36F8
3EF8
3CF0
1C70
1C70
ENDCHAR
STARTCHAR 0078
ENCODING 120
SWIDTH 565 0
DWIDTH 11 0
BBX 10 11 0 0
BITMAP
71C0
7380
3B00
1F00
1E00
0E00
1F00
3F00
3B80
7380
E1C0
ENDCHAR
STARTCHAR 0079
ENCODING 121
SWIDTH 565 0
DWIDTH 11 0
BBX 10 15 0 -4
BITMAP
E1C0
61C0
7180
7180
3380
3B00
3B00
1F00
1E00
1E00
0E00
0C00
1C00
7C00
7800
ENDCHAR
STARTCHAR 007A
ENCODING 122
SWIDTH 514 0
DWIDTH 10 0
BBX 9 11 0 0
BITMAP
7F80
7F80
0700
0F00
0E00
1C00
3C00
7800
7000
FF80
FF80
ENDCHAR
STARTCHAR 007B
ENCODING 123
SWIDTH 360 0
DWIDTH 7 0
BBX 6 18 1 -4
BITMAP
1C
3C
30
30
30
30
70
70
E0
E0
70
70
30
30
30
30
3C
1C
ENDCHAR
STARTCHAR 007C
ENCODING 124
SWIDTH 257 0
DWIDTH 5 0
BBX 2 18 2 -4
BITMAP
C0
C0
C0
C0
C0
C0
C0
C0
C0
C0
C0
C0
C0
C0
C0
C0
C0
C0
ENDCHAR
STARTCHAR 007D
ENCODING 125
SWIDTH 360 0
DWIDTH 7 0
BBX 7 18 0 -4
BITMAP
E0
F0
38
38
38
38
38
18
1E
1E
18
38
38
38
38
38
F0
E0
ENDCHAR
STARTCHAR 007E
ENCODING 126
SWIDTH 565 0
DWIDTH 11 0
BBX 9 4 1 5
BITMAP
F880
FF80
FF80
8F80
ENDCHAR
ENDFONT
